<mxfile host="app.diagrams.net" modified="2024-02-28T01:19:31.855Z" agent="Mozilla/5.0 (Windows NT 10.0; Win64; x64) AppleWebKit/537.36 (KHTML, like Gecko) Chrome/121.0.0.0 Safari/537.36" etag="nPj5EET9GsvqEhtHIizf" version="23.1.7" type="github">
  <diagram name="Page-1" id="ydfIUNK_gMVmEbcDhQVD">
    <mxGraphModel dx="1642" dy="1836" grid="1" gridSize="10" guides="1" tooltips="1" connect="1" arrows="1" fold="1" page="1" pageScale="1" pageWidth="850" pageHeight="1100" math="0" shadow="0">
      <root>
        <mxCell id="0" />
        <mxCell id="1" parent="0" />
        <mxCell id="63vsSF0owmm6zfgYTDCI-8" value="" style="rounded=0;whiteSpace=wrap;html=1;gradientColor=default;fillColor=none;" parent="1" vertex="1">
          <mxGeometry x="-50" y="-280" width="950" height="970" as="geometry" />
        </mxCell>
        <mxCell id="63vsSF0owmm6zfgYTDCI-5" style="rounded=0;orthogonalLoop=1;jettySize=auto;html=1;exitX=0;exitY=1;exitDx=0;exitDy=0;entryX=0.5;entryY=0;entryDx=0;entryDy=0;" parent="1" source="63vsSF0owmm6zfgYTDCI-1" target="63vsSF0owmm6zfgYTDCI-2" edge="1">
          <mxGeometry relative="1" as="geometry" />
        </mxCell>
        <mxCell id="63vsSF0owmm6zfgYTDCI-6" style="edgeStyle=orthogonalEdgeStyle;rounded=0;orthogonalLoop=1;jettySize=auto;html=1;exitX=0.5;exitY=1;exitDx=0;exitDy=0;" parent="1" source="63vsSF0owmm6zfgYTDCI-1" target="63vsSF0owmm6zfgYTDCI-4" edge="1">
          <mxGeometry relative="1" as="geometry" />
        </mxCell>
        <mxCell id="63vsSF0owmm6zfgYTDCI-7" style="rounded=0;orthogonalLoop=1;jettySize=auto;html=1;exitX=1;exitY=1;exitDx=0;exitDy=0;entryX=0.5;entryY=0;entryDx=0;entryDy=0;" parent="1" source="63vsSF0owmm6zfgYTDCI-1" target="63vsSF0owmm6zfgYTDCI-3" edge="1">
          <mxGeometry relative="1" as="geometry" />
        </mxCell>
        <mxCell id="63vsSF0owmm6zfgYTDCI-1" value="SEDE&lt;br&gt;&lt;div&gt;&lt;br&gt;&lt;/div&gt;&lt;div&gt;-------------------------------&lt;/div&gt;&lt;div&gt;&lt;span style=&quot;background-color: initial;&quot;&gt;Escritórios (2)&lt;/span&gt;&lt;br&gt;&lt;/div&gt;&lt;div&gt;&lt;br&gt;&lt;/div&gt;&lt;div&gt;PC - 4&lt;/div&gt;&lt;div&gt;Impressora - 2&lt;/div&gt;&lt;div&gt;Access Point - 2&lt;/div&gt;&lt;div&gt;&lt;span style=&quot;background-color: initial;&quot;&gt;-------------------------------&lt;/span&gt;&lt;br&gt;&lt;/div&gt;&lt;div&gt;&lt;span style=&quot;background-color: initial;&quot;&gt;Sala de Reunião (1)&lt;/span&gt;&lt;/div&gt;&lt;div&gt;&lt;span style=&quot;background-color: initial;&quot;&gt;&lt;br&gt;&lt;/span&gt;&lt;/div&gt;&lt;div&gt;&lt;span style=&quot;background-color: initial;&quot;&gt;Notebook - 1&lt;/span&gt;&lt;/div&gt;&lt;div&gt;Projetor - 1&lt;/div&gt;&lt;div&gt;------------------------------&lt;/div&gt;&lt;div&gt;Laboratórios (2)&lt;/div&gt;&lt;div&gt;&lt;br&gt;&lt;/div&gt;&lt;div&gt;PC - 30&lt;/div&gt;&lt;div&gt;Impressora - 2&lt;/div&gt;&lt;div&gt;Access Point - 2&lt;/div&gt;&lt;div&gt;-------------------------------&lt;/div&gt;&lt;div&gt;Sala de Video(1)&lt;/div&gt;&lt;div&gt;&lt;br&gt;&lt;/div&gt;&lt;div&gt;Camera - 1&lt;/div&gt;&lt;div&gt;PC - 1&lt;/div&gt;&lt;div&gt;------------------------------&lt;/div&gt;&lt;div&gt;Sala Servidor(1)&lt;/div&gt;&lt;div&gt;&lt;br&gt;&lt;/div&gt;&lt;div&gt;Servidor - 2&lt;/div&gt;&lt;div&gt;Switch - 3&lt;/div&gt;&lt;div&gt;Router - 2&lt;/div&gt;&lt;div&gt;&lt;br&gt;&lt;/div&gt;&lt;div&gt;&lt;br&gt;&lt;/div&gt;" style="rounded=1;whiteSpace=wrap;html=1;" parent="1" vertex="1">
          <mxGeometry x="310" y="-200" width="230" height="480" as="geometry" />
        </mxCell>
        <mxCell id="63vsSF0owmm6zfgYTDCI-2" value="UNIDADE 1&lt;br style=&quot;border-color: var(--border-color);&quot;&gt;&lt;div style=&quot;border-color: var(--border-color);&quot;&gt;&lt;br style=&quot;border-color: var(--border-color);&quot;&gt;&lt;/div&gt;&lt;div style=&quot;border-color: var(--border-color);&quot;&gt;-------------------------------&lt;/div&gt;&lt;div style=&quot;border-color: var(--border-color);&quot;&gt;Escritórios (1)&lt;br style=&quot;border-color: var(--border-color);&quot;&gt;&lt;/div&gt;&lt;div style=&quot;border-color: var(--border-color);&quot;&gt;&lt;br style=&quot;border-color: var(--border-color);&quot;&gt;&lt;/div&gt;&lt;div style=&quot;border-color: var(--border-color);&quot;&gt;PC - 2&lt;/div&gt;&lt;div style=&quot;border-color: var(--border-color);&quot;&gt;Impressora - 1&lt;/div&gt;&lt;div style=&quot;border-color: var(--border-color);&quot;&gt;Access Point - 1&lt;/div&gt;&lt;div style=&quot;border-color: var(--border-color);&quot;&gt;&lt;span style=&quot;border-color: var(--border-color); background-color: initial;&quot;&gt;-------------------------------&lt;/span&gt;&lt;br style=&quot;border-color: var(--border-color);&quot;&gt;&lt;/div&gt;&lt;div style=&quot;border-color: var(--border-color);&quot;&gt;Laboratórios (1)&lt;/div&gt;&lt;div style=&quot;border-color: var(--border-color);&quot;&gt;&lt;br style=&quot;border-color: var(--border-color);&quot;&gt;&lt;/div&gt;&lt;div style=&quot;border-color: var(--border-color);&quot;&gt;PC - 15&lt;/div&gt;&lt;div style=&quot;border-color: var(--border-color);&quot;&gt;Impressora - 1&lt;/div&gt;&lt;div style=&quot;border-color: var(--border-color);&quot;&gt;Access Point - 1&lt;/div&gt;&lt;div style=&quot;border-color: var(--border-color);&quot;&gt;-------------------------------&lt;/div&gt;" style="rounded=1;whiteSpace=wrap;html=1;" parent="1" vertex="1">
          <mxGeometry x="-10" y="400" width="230" height="250" as="geometry" />
        </mxCell>
        <mxCell id="63vsSF0owmm6zfgYTDCI-3" value="UNIDADE 3&lt;br style=&quot;border-color: var(--border-color);&quot;&gt;&lt;div style=&quot;border-color: var(--border-color);&quot;&gt;&lt;br style=&quot;border-color: var(--border-color);&quot;&gt;&lt;/div&gt;&lt;div style=&quot;border-color: var(--border-color);&quot;&gt;-------------------------------&lt;/div&gt;&lt;div style=&quot;border-color: var(--border-color);&quot;&gt;Escritórios (1)&lt;br style=&quot;border-color: var(--border-color);&quot;&gt;&lt;/div&gt;&lt;div style=&quot;border-color: var(--border-color);&quot;&gt;&lt;br style=&quot;border-color: var(--border-color);&quot;&gt;&lt;/div&gt;&lt;div style=&quot;border-color: var(--border-color);&quot;&gt;PC - 2&lt;/div&gt;&lt;div style=&quot;border-color: var(--border-color);&quot;&gt;Impressora - 1&lt;/div&gt;&lt;div style=&quot;border-color: var(--border-color);&quot;&gt;Access Point - 1&lt;/div&gt;&lt;div style=&quot;border-color: var(--border-color);&quot;&gt;-------------------------------&lt;br style=&quot;border-color: var(--border-color);&quot;&gt;&lt;/div&gt;&lt;div style=&quot;border-color: var(--border-color);&quot;&gt;Laboratórios (1)&lt;/div&gt;&lt;div style=&quot;border-color: var(--border-color);&quot;&gt;&lt;br style=&quot;border-color: var(--border-color);&quot;&gt;&lt;/div&gt;&lt;div style=&quot;border-color: var(--border-color);&quot;&gt;PC - 15&lt;/div&gt;&lt;div style=&quot;border-color: var(--border-color);&quot;&gt;Impressora - 1&lt;/div&gt;&lt;div style=&quot;border-color: var(--border-color);&quot;&gt;Access Point - 1&lt;/div&gt;&lt;div style=&quot;border-color: var(--border-color);&quot;&gt;-------------------------------&lt;/div&gt;" style="rounded=1;whiteSpace=wrap;html=1;" parent="1" vertex="1">
          <mxGeometry x="630" y="400" width="230" height="250" as="geometry" />
        </mxCell>
        <mxCell id="63vsSF0owmm6zfgYTDCI-4" value="UNIDADE 2&lt;br style=&quot;border-color: var(--border-color);&quot;&gt;&lt;div style=&quot;border-color: var(--border-color);&quot;&gt;&lt;br style=&quot;border-color: var(--border-color);&quot;&gt;&lt;/div&gt;&lt;div style=&quot;border-color: var(--border-color);&quot;&gt;-------------------------------&lt;/div&gt;&lt;div style=&quot;border-color: var(--border-color);&quot;&gt;Escritórios (1)&lt;br style=&quot;border-color: var(--border-color);&quot;&gt;&lt;/div&gt;&lt;div style=&quot;border-color: var(--border-color);&quot;&gt;&lt;br style=&quot;border-color: var(--border-color);&quot;&gt;&lt;/div&gt;&lt;div style=&quot;border-color: var(--border-color);&quot;&gt;PC - 2&lt;/div&gt;&lt;div style=&quot;border-color: var(--border-color);&quot;&gt;Impressora - 1&lt;/div&gt;&lt;div style=&quot;border-color: var(--border-color);&quot;&gt;Access Point - 1&lt;/div&gt;&lt;div style=&quot;border-color: var(--border-color);&quot;&gt;-------------------------------&lt;br style=&quot;border-color: var(--border-color);&quot;&gt;&lt;/div&gt;&lt;div style=&quot;border-color: var(--border-color);&quot;&gt;Laboratórios (1)&lt;/div&gt;&lt;div style=&quot;border-color: var(--border-color);&quot;&gt;&lt;br style=&quot;border-color: var(--border-color);&quot;&gt;&lt;/div&gt;&lt;div style=&quot;border-color: var(--border-color);&quot;&gt;PC - 15&lt;/div&gt;&lt;div style=&quot;border-color: var(--border-color);&quot;&gt;Impressora - 1&lt;/div&gt;&lt;div style=&quot;border-color: var(--border-color);&quot;&gt;Access Point - 1&lt;/div&gt;&lt;div style=&quot;border-color: var(--border-color);&quot;&gt;-------------------------------&lt;/div&gt;" style="rounded=1;whiteSpace=wrap;html=1;" parent="1" vertex="1">
          <mxGeometry x="310" y="400" width="230" height="250" as="geometry" />
        </mxCell>
        <mxCell id="63vsSF0owmm6zfgYTDCI-9" value="&lt;b&gt;&lt;font style=&quot;font-size: 18px;&quot;&gt;INSTITUTO RECICLAR&lt;/font&gt;&lt;/b&gt;" style="text;html=1;align=center;verticalAlign=middle;whiteSpace=wrap;rounded=0;" parent="1" vertex="1">
          <mxGeometry x="165" y="-280" width="520" height="30" as="geometry" />
        </mxCell>
      </root>
    </mxGraphModel>
  </diagram>
</mxfile>
